<svg fill="#FFFFFF" xmlns="http://www.w3.org/2000/svg"  viewBox="0 0 64 64" width="48px" height="48px"><path d="M 44.125 8.4140625 C 40.417178 8.4140625 37.132751 10.226379 35.082031 13.001953 L 20.537109 13.001953 C 18.257109 13.001953 16.114953 13.889953 14.501953 15.501953 C 12.889953 17.113953 12 19.258063 12 21.539062 L 12 44.460938 C 12 46.742938 12.889953 48.886047 14.501953 50.498047 C 16.114953 52.110047 18.257109 52.998047 20.537109 52.998047 L 43.462891 52.998047 C 45.742891 52.998047 47.885047 52.110047 49.498047 50.498047 C 51.110047 48.886047 52 46.741937 52 44.460938 L 52 27.990234 C 53.797645 25.575996 55.375 23.165633 55.375 19.664062 C 55.375 13.461063 50.328 8.4140625 44.125 8.4140625 z M 44.125 12.416016 C 48.123 12.416016 51.375 15.668016 51.375 19.666016 C 51.375 22.202016 50.058328 23.946375 48.236328 26.359375 C 46.913328 28.112375 45.36 30.167828 44.125 32.923828 C 42.89 30.167828 41.336672 28.111375 40.013672 26.359375 C 38.190672 23.946375 36.875 22.203016 36.875 19.666016 C 36.875 15.668016 40.127 12.416016 44.125 12.416016 z M 20.537109 17.001953 L 33.207031 17.001953 C 32.998132 17.857538 32.875 18.745079 32.875 19.664062 C 32.875 23.177928 34.462574 25.591689 36.267578 28.013672 L 16.972656 47.236328 C 16.353656 46.443328 16 45.485891 16 44.462891 L 16 21.539062 C 16 20.326062 16.471125 19.185078 17.328125 18.330078 C 18.185125 17.472078 19.325109 17.001953 20.537109 17.001953 z M 44.125 17.142578 C 42.733 17.142578 41.601562 18.273016 41.601562 19.666016 C 41.601562 21.059016 42.733 22.189453 44.125 22.189453 C 45.518 22.189453 46.648438 21.059016 46.648438 19.666016 C 46.648438 18.273016 45.517 17.142578 44.125 17.142578 z M 23 19 C 20.238 19 18 21.238 18 24 C 18 26.762 20.238 29 23 29 C 25.762 29 28 26.762 28 24 C 28 23.657 27.962484 23.323 27.896484 23 L 27.869141 22.888672 L 23 22.888672 L 23 24.554688 L 26.332031 24.554688 C 26.067031 26.130688 24.651 27.332031 23 27.332031 C 21.159 27.332031 19.667969 25.841 19.667969 24 C 19.667969 22.159 21.159 20.667969 23 20.667969 C 23.834 20.667969 24.593734 20.974469 25.177734 21.480469 L 26.373047 20.310547 C 25.484047 19.496547 24.3 19 23 19 z M 38.619141 31.253906 C 39.798359 33.008763 40.873722 35.006912 41.572266 37.689453 C 41.596266 37.781453 42.237 40.25 44.125 40.25 C 46.251 40.25 46.653734 37.781453 46.677734 37.689453 C 47.031869 36.329508 47.488224 35.155059 48 34.087891 L 48 44.460938 C 48 44.827938 47.942375 45.18325 47.859375 45.53125 L 36.095703 33.767578 L 38.619141 31.253906 z M 33.261719 36.591797 L 45.283203 48.611328 C 44.715203 48.860328 44.101891 49 43.462891 49 L 22.544922 49 C 22.463922 49.013 20.830641 49.013 20.806641 49 L 33.261719 36.591797 z"/></svg>